<?xml version="1.0" encoding="utf-8"?>
<!-- Generator: Adobe Illustrator 23.0.4, SVG Export Plug-In . SVG Version: 6.00 Build 0)  -->
<svg version="1.1" id="Layer_1" xmlns="http://www.w3.org/2000/svg" xmlns:xlink="http://www.w3.org/1999/xlink" x="0px" y="0px"
	 viewBox="0 0 380 480" style="enable-background:new 0 0 380 480;" xml:space="preserve">
<style type="text/css">
	.st0{fill-rule:evenodd;clip-rule:evenodd;fill:#B28B67;}
	.st1{fill-rule:evenodd;clip-rule:evenodd;fill:#191847;}
	.st2{fill-rule:evenodd;clip-rule:evenodd;fill:#1565C0;}
	.st3{fill-rule:evenodd;clip-rule:evenodd;fill:#A88265;}
	.st4{fill-rule:evenodd;clip-rule:evenodd;fill:#E4E4E4;}
	.st5{fill-rule:evenodd;clip-rule:evenodd;fill:#2196F3;}
	.st6{fill-rule:evenodd;clip-rule:evenodd;fill:#C63970;}
	.st7{fill-rule:evenodd;clip-rule:evenodd;fill:#DDE3E9;}
	.st8{fill-rule:evenodd;clip-rule:evenodd;fill:#EC407A;}
</style>
<title>humaaans/standing-15</title>
<desc>Created with Sketch.</desc>
<g>
	<g id="humaaan-6" transform="translate(26.000000, -1.000000)">
		
			<g transform="translate(204.118188, 79.110322) rotate(20.000000) translate(-204.118188, -79.110322) translate(130.369247, 22.827274)">
			<g id="Head" transform="translate(58.494090, 33.579940)">
				<path class="st0" d="M8.9,37.4c-5-5.9-8.4-13-7.8-21.1C2.8-6.9,35-1.8,41.3,9.9s5.5,41.4-2.6,43.5c-3.2,0.8-10.1-1.2-17.1-5.4
					L26,79.1l-26,0L8.9,37.4z"/>
			</g>
			<path id="hair" class="st1" d="M76.4,69.3c-3.2,6.2-7.7,10.8-12.1,10.8c-8.5,0-14.5-11.3-14.5-23.5c0-0.4,0-0.9,0-1.3
				C40.9,61.6,34,73.7,22.2,73.7c-16.1,0-22.5-32.5,0-32.5c15.3,0,22.8,2.2,29.3,5.5c1.3-3.6,3.2-6.6,5.6-8.8
				c0.6-0.6,1.5-1.3,2.6-1.8c0.7-0.4,1.4-0.7,2.2-0.9c3.9-1.4,9.6-2.5,15.9-2.7c1.2,0,2.3-0.1,3.5,0c0-6,4.9-10.8,10.8-10.8
				c6,0,10.8,4.8,10.8,10.8c0,5.8-4.5,10.5-10.2,10.8c-3.3,1-7.5,1.7-12.1,2.1c0.5,1.7,0.7,3.6,0.7,5.8c0,1.9-0.2,4-0.6,6
				c-1-1.2-2.4-2-3.7-2c-3.8,0-6.5,3.2-6.5,6.5C70.4,66,72.9,69.1,76.4,69.3z"/>
		</g>
		<g transform="translate(0.000000, 222.255541)">
			<path id="Skirt-Shadow" class="st2" d="M105.5,106.3c26,7.3,48.4,10.9,67.3,10.9s36.4-5.6,52.5-16.8
				c-25.4-7.5-46.4-11.2-62.8-11.2S127,94.9,105.5,106.3z"/>
			<path id="Leg" class="st3" d="M195.3,127.6c-0.3-0.4-0.5-0.8-0.6-1.2C191.2,117.2,135.5,18.1,130,0h62.6
				c4.2,13.8,23.2,100.2,25.9,117.5c8.4,27.2,25.8,115.3,28,121.4c2.3,6.4-10.8,13.1-14.3,5.2c-5.6-12.6-18.8-47.3-24.7-68.5
				C202,155.7,197.5,137.8,195.3,127.6z"/>
			<path class="st0" d="M144,139.7c-25.4,6.4-118.5,18.1-124.9,19.9c-6.6,1.9-12.3-11.7-4.2-14.6c12.9-4.7,48.5-15.4,70.1-19.8
				c17.4-3.5,33.2-6.4,43.8-8.1c-0.9-29.9-5-101.6-2.3-117H182c-2.6,14.8-24.5,123.2-28.5,134C152.2,137.9,148.3,139.6,144,139.7z"
				/>
			
				<g transform="translate(26.538985, 170.066150) rotate(80.000000) translate(-26.538985, -170.066150) translate(-6.499343, 148.401672)">
				<path id="shoe" class="st4" d="M2.9,27.5c-1.2,3.2-1.8,5.7-1.8,7.3c0,2,0.3,4.8,1,8.6c2.3,0,22.6,0,61.1,0
					c1.6-5.2,0.7-8.1-2.7-8.5s-6.3-0.8-8.5-1.1L23.5,21c-0.5-0.2-1.2,0-1.4,0.5c0,0,0,0,0,0L20.2,26c-3.2,1.5-5.7,2.2-7.7,2.2
					c-1.6,0-3.8-0.6-6.7-1.9l0,0c-1.1-0.5-2.4,0-2.9,1.1C2.9,27.4,2.9,27.5,2.9,27.5z"/>
			</g>
			<g transform="translate(225.310568, 215.561553)">
				<path class="st4" d="M2.9,27.5c-1.2,3.2-1.8,5.7-1.8,7.3c0,2,0.3,4.8,1,8.6c2.3,0,22.6,0,61.1,0c1.6-5.2,0.7-8.1-2.7-8.5
					s-6.3-0.8-8.5-1.1L23.5,21c-0.5-0.2-1.2,0-1.4,0.5c0,0,0,0,0,0L20.2,26c-3.2,1.5-5.7,2.2-7.7,2.2c-1.6,0-3.8-0.6-6.7-1.9l0,0
					c-1.1-0.5-2.4,0-2.9,1.1C2.9,27.4,2.9,27.5,2.9,27.5z"/>
			</g>
			<path id="Skirt" class="st5" d="M126.7,0c24.4-7,47.5-7,69.3,0c7.6,34.6,26,48.3,29.2,101.4c-36.8,18.3-82.3-13.1-120.2,4.8
				C94.2,81.2,109.4,21.1,126.7,0z"/>
		</g>
		
			<g transform="translate(167.600715, 210.103120) rotate(15.000000) translate(-167.600715, -210.103120) translate(28.779179, 108.901871)">
			<path id="Skin" class="st0" d="M215.3,83.7l39.4-17.2c6.9-6.8,13.6-12,20-15.5c1.9-0.6,5.2-0.8,1.7,4.3c-3.5,5.1-7,10.6-5.6,12.3
				c1.4,1.8,5.5-0.2,7.1,2.7c1.1,1.9-5.8,4.2-20.5,6.9l-29.5,22.4L215.3,83.7z M56,88.4l22.3,4.4c-22.4,41.4-34.4,63.3-36,65.8
				c-3.7,5.6-0.2,15.8,1,21.2c-7.9,1.8-4.8-10-14.8-7.5c-9.1,2.2-16.9,8-25.4,0.2c-1-1-1.8-3.9,1.8-5.5c8.9-3.8,22-11,24.2-13.8
				C31.9,149.5,40.9,127.9,56,88.4z"/>
			<path id="Coat-Back" class="st6" d="M138.8,5.7l9.4-1.6c20.5,19.7,28.8,67,42.5,73.3c12.9,5.9,31.2,0.2,52.9-7.5l6.7,14.7
				c-19.8,21.2-61.8,39.1-78.9,28.9C144.1,97.1,137.8,38.8,138.8,5.7z"/>
			<path id="Shirt" class="st7" d="M97.8,122.9c37.7,0,65.4,0,83.2,0c3.8,0,3.1-5.4,2.5-8.2c-6.3-31.7-31.1-65.9-31.1-111l-24-3.7
				C108.6,31.6,101.8,70.6,97.8,122.9z"/>
			<path id="Coat-Front" class="st8" d="M89.5,90.8c-17,30.3-31.2,52.2-42.8,65.5l-17.4-3.4C40.6,83.8,73.1,32.9,126.9,0l0.3,0
				l9.2,0c21.5,72.8,27.5,121.3,17.8,145.5H79.4C80.5,127.8,84.3,109.1,89.5,90.8z"/>
		</g>
	</g>
</g>
</svg>
