<?xml version="1.0" encoding="utf-8"?>
<!-- Generator: Adobe Illustrator 23.0.4, SVG Export Plug-In . SVG Version: 6.00 Build 0)  -->
<svg version="1.1" id="Layer_1" xmlns="http://www.w3.org/2000/svg" xmlns:xlink="http://www.w3.org/1999/xlink" x="0px" y="0px"
	 viewBox="0 0 210.7 74.2" style="enable-background:new 0 0 210.7 74.2;" xml:space="preserve">
<style type="text/css">
	.st0{fill:#673AB7;}
	.st1{fill:#EC407A;}
	.st2{fill:#FFC107;}
	.st3{enable-background:new    ;}
	.st4{fill:#333333;}
</style>
<g>
	<path class="st0" d="M36.4,61.7c1.1,0,1.9,0,2.5,0.1c0.6,0.1,1.2,0.3,1.9,0.7s1.2,1,1.5,1.8c0.3,0.9,0.5,2,0.5,3.5
		c0,1.2-0.1,2.3-0.4,3.1s-0.5,1.4-0.9,1.9c-0.3,0.4-0.8,0.8-1.5,1s-1.2,0.3-1.7,0.4c-0.5,0-1.1,0-2,0h-30c-1.1,0-2.2-0.3-3.2-0.9
		c-1-0.6-1.8-1.3-2.3-2.3C0.3,70,0,68.9,0,67.6c0-1.2,0.3-2.2,0.9-3l22.3-30.9H6.6c-1.2,0-2,0-2.6-0.1c-0.5-0.1-1.2-0.3-2-0.7
		s-1.3-1-1.6-1.9C0.2,30.2,0,29,0,27.6c0-1.5,0.1-2.8,0.4-3.7s0.8-1.6,1.5-1.9c0.7-0.4,1.4-0.6,1.9-0.7s1.4-0.1,2.6-0.1h28.9
		c1.1,0,2.2,0.3,3.2,0.9c1,0.6,1.8,1.3,2.3,2.3c0.6,1,0.9,2.1,0.9,3.4s-0.3,2.3-0.9,3.1L18.5,61.7H36.4z"/>
</g>
<g>
	<path class="st1" d="M51.8,38.1c0.7,0,1.2,0,1.6,0.1c0.4,0.1,0.8,0.2,1.2,0.5s0.8,0.6,1,1.2s0.3,1.3,0.3,2.3c0,0.8-0.1,1.5-0.2,2
		c-0.2,0.5-0.3,0.9-0.6,1.2s-0.5,0.5-1,0.6c-0.4,0.1-0.8,0.2-1.1,0.2c-0.3,0-0.8,0-1.3,0H32.1c-0.7,0-1.4-0.2-2.1-0.6
		s-1.2-0.9-1.5-1.5C28.2,43.6,28,42.9,28,42c0-0.8,0.2-1.5,0.6-2l14.6-20.2H32.3c-0.8,0-1.3,0-1.7-0.1s-0.8-0.2-1.3-0.4
		c-0.5-0.2-0.9-0.6-1.1-1.2c-0.2-0.6-0.3-1.3-0.3-2.3c0-1,0.1-1.8,0.3-2.4c0.2-0.6,0.5-1,1-1.3s0.9-0.4,1.2-0.4s0.9-0.1,1.7-0.1h19
		c0.7,0,1.4,0.2,2.1,0.6s1.2,0.9,1.5,1.5c0.4,0.6,0.6,1.4,0.6,2.2s-0.2,1.5-0.6,2L40.1,38.1H51.8z"/>
</g>
<g>
	<path class="st2" d="M64.3,20.3c0.5,0,0.9,0,1.2,0.1c0.3,0,0.6,0.2,0.9,0.3c0.3,0.2,0.6,0.5,0.7,0.9c0.2,0.4,0.2,1,0.2,1.7
		c0,0.6-0.1,1.1-0.2,1.5s-0.3,0.7-0.4,0.9c-0.2,0.2-0.4,0.4-0.7,0.5s-0.6,0.2-0.8,0.2s-0.6,0-1,0h-15c-0.5,0-1.1-0.1-1.6-0.4
		s-0.9-0.7-1.2-1.1c-0.3-0.5-0.4-1-0.4-1.7c0-0.6,0.1-1.1,0.4-1.5L57.7,6.3h-8.3c-0.6,0-1,0-1.3-0.1c-0.3,0-0.6-0.1-1-0.3
		c-0.4-0.2-0.7-0.5-0.8-0.9c-0.2-0.4-0.2-1-0.2-1.8c0-0.8,0.1-1.4,0.2-1.8c0.1-0.5,0.4-0.8,0.8-1c0.4-0.2,0.7-0.3,0.9-0.3
		C48.3,0,48.7,0,49.3,0h14.5c0.6,0,1.1,0.1,1.6,0.4s0.9,0.7,1.2,1.1c0.3,0.5,0.4,1,0.4,1.7s-0.1,1.2-0.4,1.5L55.3,20.3H64.3z"/>
</g>
<g class="st3">
	<path class="st4" d="M90.6,34.1H95v24.1h12.3v3.9H90.6V34.1z"/>
	<path class="st4" d="M126.2,42.3v19.8h-3.8l-0.2-1.7c-1.3,1.4-3,2.1-5,2.1c-2.6,0-4.6-0.8-5.8-2.3c-1.3-1.5-1.9-3.8-1.9-6.7V42.3
		h4.2v10.6c0,2,0.3,3.5,1,4.5c0.7,1,1.8,1.5,3.3,1.5c0.9,0,1.7-0.2,2.4-0.5c0.7-0.3,1.3-0.8,1.8-1.5V42.3H126.2z"/>
	<path class="st4" d="M132.3,61.1c-0.8-0.9-1.3-2.1-1.3-3.6V32.1h4.2v23.4c0,1.1,0.1,1.9,0.2,2.4s0.4,0.8,0.8,1s1,0.2,1.9,0.2
		l-0.5,3.4h-1.4C134.4,62.5,133.1,62,132.3,61.1z"/>
	<path class="st4" d="M142.1,61.1c-0.8-0.9-1.3-2.1-1.3-3.6V32.1h4.2v23.4c0,1.1,0.1,1.9,0.2,2.4c0.1,0.5,0.4,0.8,0.8,1
		c0.4,0.1,1,0.2,1.9,0.2l-0.5,3.4H146C144.3,62.5,143,62,142.1,61.1z"/>
	<path class="st4" d="M151,60.9c-1.1-1.1-1.7-2.5-1.7-4.2c0-1.7,0.6-3.1,1.8-4.2c1.2-1,2.7-1.8,4.4-2.2c1.7-0.4,3.5-0.7,5.3-0.7
		c0-1.5-0.4-2.6-1-3.1c-0.6-0.6-1.6-0.9-3-0.9c-0.9,0-1.7,0.1-2.5,0.4c-0.8,0.3-1.8,0.7-2.8,1.3l-0.5-3.4c1-0.6,2.1-1.1,3.3-1.4
		c1.2-0.3,2.4-0.5,3.7-0.5c2.5,0,4.2,0.7,5.4,2c1.1,1.3,1.7,3.6,1.7,6.8v4.6c0,1,0,1.8,0.1,2.3c0.1,0.5,0.3,0.9,0.6,1.1
		c0.3,0.2,0.7,0.3,1.3,0.3h0.5l-0.5,3.4h-0.9c-1.4,0-2.4-0.2-3.1-0.6c-0.7-0.4-1.3-1.1-1.7-2c-0.7,0.8-1.6,1.5-2.6,1.9
		c-1,0.5-2.2,0.7-3.4,0.7C153.5,62.5,152.1,61.9,151,60.9z M158.8,58.6c0.8-0.4,1.4-0.9,2-1.6v-4.6c-4.8,0.2-7.2,1.5-7.2,4
		c0,1.8,1,2.7,2.9,2.7C157.3,59.2,158.1,59,158.8,58.6z"/>
	<path class="st4" d="M185,43.4c1.3,0.9,2.4,2.2,3.1,3.7c0.7,1.6,1.1,3.3,1.1,5.1c0,1.9-0.4,3.6-1.1,5.2c-0.7,1.6-1.8,2.8-3.1,3.7
		c-1.3,0.9-2.9,1.4-4.6,1.4c-1.2,0-2.3-0.2-3.3-0.6c-1-0.4-1.9-1-2.6-1.7l-0.2,1.9h-3.8v-30h4.2v12.2c0.7-0.7,1.6-1.3,2.6-1.7
		c1-0.4,2.1-0.6,3.2-0.6C182.1,42,183.7,42.4,185,43.4z M183.5,57c0.9-1.3,1.4-2.9,1.4-4.8c0-2-0.5-3.6-1.4-4.8s-2.2-1.9-3.8-1.9
		c-1.7,0-3,0.6-4,1.8c-1,1.2-1.5,2.8-1.5,4.9c0,2.2,0.5,3.8,1.5,5c1,1.2,2.3,1.7,4,1.7C181.3,58.9,182.5,58.3,183.5,57z"/>
	<path class="st4" d="M198.3,61l-8.2-18.7h4.7l5.7,13.8l5.4-13.8h4.6l-12.2,29.4h-4.4L198.3,61z"/>
</g>
</svg>
