<?xml version="1.0" encoding="utf-8"?>
<!-- Generator: Adobe Illustrator 23.0.4, SVG Export Plug-In . SVG Version: 6.00 Build 0)  -->
<svg version="1.1" id="Layer_1" xmlns="http://www.w3.org/2000/svg" xmlns:xlink="http://www.w3.org/1999/xlink" x="0px" y="0px"
	 viewBox="0 0 67.43 74.17" style="enable-background:new 0 0 67.43 74.17;" xml:space="preserve">
<style type="text/css">
	.st0{fill:#673AB7;mix-blend-mode: overlay;}
	.st1{fill:#EC407A;mix-blend-mode: overlay;}
	.st2{fill:#FFC107;mix-blend-mode: overlay;}
</style>
<g>
	<path class="st0" d="M36.43,61.72c1.06,0,1.87,0.05,2.45,0.14c0.58,0.1,1.2,0.32,1.87,0.68c0.67,0.36,1.16,0.97,1.48,1.84
		c0.31,0.86,0.47,2.02,0.47,3.46c0,1.25-0.12,2.28-0.36,3.1c-0.24,0.82-0.53,1.44-0.86,1.87c-0.34,0.43-0.83,0.76-1.48,0.97
		s-1.2,0.33-1.66,0.36c-0.46,0.02-1.14,0.04-2.05,0.04H6.34c-1.1,0-2.16-0.29-3.17-0.86c-1.01-0.58-1.78-1.34-2.3-2.3
		C0.29,70.04,0,68.92,0,67.62c0-1.25,0.29-2.25,0.86-3.02l22.32-30.89H6.62c-1.15,0-2-0.04-2.56-0.11
		c-0.55-0.07-1.21-0.29-1.98-0.65c-0.77-0.36-1.31-0.98-1.62-1.87C0.16,30.19,0,29.03,0,27.59c0-1.54,0.14-2.76,0.43-3.67
		c0.29-0.91,0.79-1.56,1.51-1.94c0.72-0.38,1.36-0.61,1.91-0.68c0.55-0.07,1.4-0.11,2.56-0.11h28.94c1.1,0,2.16,0.29,3.17,0.86
		c1.01,0.58,1.78,1.34,2.3,2.3c0.58,0.96,0.86,2.09,0.86,3.38s-0.29,2.33-0.86,3.1L18.5,61.72H36.43z"/>
</g>
<g>
	<path class="st1" d="M51.83,38.14c0.69,0,1.23,0.03,1.6,0.09c0.38,0.06,0.79,0.21,1.23,0.45s0.76,0.64,0.97,1.2
		s0.31,1.32,0.31,2.26c0,0.82-0.08,1.49-0.24,2.03c-0.16,0.54-0.35,0.94-0.57,1.23s-0.54,0.5-0.97,0.64
		c-0.42,0.14-0.79,0.22-1.08,0.24c-0.3,0.02-0.75,0.02-1.34,0.02H32.12c-0.72,0-1.41-0.19-2.07-0.57s-1.16-0.88-1.51-1.51
		c-0.38-0.63-0.57-1.37-0.57-2.22c0-0.82,0.19-1.48,0.57-1.98L43.15,19.8H32.31c-0.75,0-1.31-0.02-1.67-0.07
		c-0.36-0.05-0.79-0.19-1.3-0.42c-0.5-0.24-0.86-0.64-1.06-1.23c-0.2-0.58-0.31-1.34-0.31-2.29c0-1.01,0.09-1.81,0.28-2.41
		c0.19-0.6,0.52-1.02,0.99-1.27c0.47-0.25,0.89-0.4,1.25-0.45c0.36-0.05,0.92-0.07,1.67-0.07h18.96c0.72,0,1.41,0.19,2.07,0.57
		s1.16,0.88,1.51,1.51c0.38,0.63,0.57,1.37,0.57,2.22c0,0.85-0.19,1.52-0.57,2.03L40.09,38.14H51.83z"/>
</g>
<g>
	<path class="st2" d="M64.29,20.27c0.53,0,0.94,0.02,1.22,0.07c0.29,0.05,0.6,0.16,0.94,0.34c0.34,0.18,0.58,0.49,0.74,0.92
		c0.16,0.43,0.23,1.01,0.23,1.73c0,0.62-0.06,1.14-0.18,1.55s-0.26,0.72-0.43,0.94c-0.17,0.22-0.41,0.38-0.74,0.49
		s-0.6,0.17-0.83,0.18c-0.23,0.01-0.57,0.02-1.03,0.02H49.25c-0.55,0-1.08-0.14-1.58-0.43s-0.89-0.67-1.15-1.15
		c-0.29-0.48-0.43-1.04-0.43-1.69c0-0.62,0.14-1.13,0.43-1.51L57.67,6.26h-8.28c-0.58,0-1-0.02-1.28-0.05
		c-0.28-0.04-0.61-0.14-0.99-0.32c-0.38-0.18-0.65-0.49-0.81-0.94c-0.16-0.44-0.23-1.03-0.23-1.75c0-0.77,0.07-1.38,0.22-1.84
		c0.14-0.46,0.4-0.78,0.76-0.97C47.41,0.2,47.73,0.09,48,0.05C48.28,0.02,48.71,0,49.28,0h14.47c0.55,0,1.08,0.14,1.58,0.43
		c0.5,0.29,0.89,0.67,1.15,1.15c0.29,0.48,0.43,1.04,0.43,1.69s-0.14,1.16-0.43,1.55L55.33,20.27H64.29z"/>
</g>
<g>
</g>
<g>
</g>
<g>
</g>
<g>
</g>
<g>
</g>
</svg>
